# xmcd
#
# Track frame offsets:
#	150
#	25485
#	42749
#	68786
#	89861
#	107038
#	122490
#	151427
#	171041
#
# Disc length: 2531
#
# Revision: 1
# Processed by: cddbd v1.5.1PL0 Copyright (c) Steve Scherf et al.
# Submitted via: dBpowerAMP V4.0
# Normalized: r0:TRMNUM
#
DISCID=7c09e109
DTITLE=Robben Ford - Talk to Your Daughter 
DYEAR=1990
DGENRE=Blues
TTITLE0=Talk to Your Daughter
TTITLE1=Wild About You (Can't Hold Out Much Longer)
TTITLE2=Help the Poor
TTITLE3=Ain't Got Nothin' But the Blues 
TTITLE4=Born Under a Bad Sign 
TTITLE5=I Got over It 
TTITLE6=Revelation 
TTITLE7=Getaway 
TTITLE8=Can't Let Her Go 
EXTD=Matteo
EXTT0=
EXTT1=
EXTT2=
EXTT3=
EXTT4=
EXTT5=
EXTT6=
EXTT7=
EXTT8=
PLAYORDER=
